<?xml version="1.0" encoding="UTF-8" standalone="no"?>
<svg
   version="1.0"
   width="2000.000000pt"
   height="2000.000000pt"
   viewBox="0 0 2000.000000 2000.000000"
   preserveAspectRatio="xMidYMid meet"
   id="svg2"
   sodipodi:docname="elmasa.svg"
   inkscape:version="1.4 (86a8ad7, 2024-10-11)"
   xmlns:inkscape="http://www.inkscape.org/namespaces/inkscape"
   xmlns:sodipodi="http://sodipodi.sourceforge.net/DTD/sodipodi-0.dtd"
   xmlns="http://www.w3.org/2000/svg"
   xmlns:svg="http://www.w3.org/2000/svg">
  <defs
     id="defs2" />
  <sodipodi:namedview
     id="namedview2"
     pagecolor="#505050"
     bordercolor="#eeeeee"
     borderopacity="1"
     inkscape:showpageshadow="0"
     inkscape:pageopacity="0"
     inkscape:pagecheckerboard="0"
     inkscape:deskcolor="#505050"
     inkscape:document-units="pt"
     inkscape:zoom="0.207375"
     inkscape:cx="1333.3333"
     inkscape:cy="1333.3333"
     inkscape:window-width="1366"
     inkscape:window-height="705"
     inkscape:window-x="-8"
     inkscape:window-y="-8"
     inkscape:window-maximized="1"
     inkscape:current-layer="svg2" />
  <g
     transform="matrix(0.09107914,0,0,-0.08294211,25.991579,1789.7012)"
     fill="#000000"
     stroke="none"
     id="g2">
    <path
       d="m 8780,12321 c -294,-43 -540,-223 -720,-527 -144,-244 -189,-458 -191,-917 -1,-270 -12,-543 -22,-553 -4,-4 -49,2 -101,14 -221,51 -381,10 -481,-121 -31,-42 -37,-43 -135,-17 -60,16 -348,7 -455,-14 -215,-42 -209,-42 -249,-11 -30,23 -48,28 -119,32 -110,7 -210,-12 -385,-72 -40,-14 -111,-41 -159,-60 -51,-22 -90,-32 -95,-27 -5,5 -24,58 -42,118 -18,60 -38,118 -44,129 -6,11 -25,49 -42,85 -18,36 -50,96 -72,133 -157,270 -533,636 -900,878 -448,295 -483,316 -598,374 -207,104 -383,148 -496,125 -32,-7 -71,-18 -85,-25 -98,-51 -330,-438 -379,-634 -7,-24 -16,-51 -21,-60 -13,-24 -48,-209 -65,-346 -16,-130 -13,-558 5,-705 18,-138 51,-325 65,-365 8,-22 18,-62 22,-90 4,-27 13,-68 21,-90 8,-22 21,-64 29,-93 8,-30 25,-78 39,-108 14,-30 25,-56 25,-58 0,-14 168,-305 238,-411 421,-645 1008,-1088 1682,-1269 217,-58 157,-56 1611,-56 1508,0 1349,-9 1512,83 110,62 127,61 272,-22 l 106,-61 h 846 846 l 138,-139 c 213,-215 354,-332 468,-392 39,-20 57,-23 149,-20 72,1 122,8 159,21 134,47 316,224 489,475 l 41,60 879,5 c 872,6 880,6 949,28 97,30 206,87 266,139 28,24 53,43 57,43 3,0 33,-18 66,-40 200,-130 454,-186 733,-162 241,21 483,87 708,193 176,82 472,274 673,434 272,218 487,460 688,775 35,55 108,191 124,230 7,19 17,40 22,46 23,30 117,286 144,389 92,360 107,469 107,810 1,253 -13,429 -44,550 -5,22 -18,99 -28,170 -21,142 -53,300 -68,331 -101,205 -155,269 -280,331 -67,33 -85,38 -171,41 -144,7 -249,-22 -452,-123 -174,-86 -334,-190 -580,-374 -146,-109 -368,-291 -472,-388 -26,-23 -54,-43 -63,-43 -17,0 -17,-13 6,222 11,118 3,256 -23,388 -13,70 -66,220 -84,241 -8,8 -14,19 -14,23 0,13 -77,110 -116,147 -22,20 -66,52 -99,72 -33,19 -97,57 -142,85 -99,60 -226,114 -337,144 -63,17 -110,22 -211,22 -149,1 -216,-14 -334,-71 l -73,-36 -47,18 c -203,81 -350,111 -490,102 -148,-10 -246,-54 -348,-158 -66,-67 -117,-152 -153,-258 l -22,-63 6,-822 c 4,-479 3,-826 -2,-834 -6,-9 -39,17 -123,100 -123,122 -194,175 -298,219 l -66,28 -996,1 c -1119,0 -1033,6 -1164,-78 -41,-26 -118,-93 -187,-164 -89,-92 -119,-117 -124,-104 -7,17 2,1149 12,1478 6,201 5,210 -20,309 -55,212 -125,273 -374,324 -91,19 -264,27 -342,16 z m 230,-558 c 1,-43 5,-413 10,-823 5,-410 10,-986 11,-1280 1,-294 4,-623 8,-730 l 6,-195 95,-7 c 52,-4 149,-10 214,-14 l 119,-6 51,-56 c 28,-31 105,-115 171,-186 66,-72 164,-179 218,-237 53,-59 97,-112 97,-118 0,-9 -173,-11 -712,-9 l -713,3 -57,23 c -58,23 -113,74 -142,131 -14,27 -16,194 -16,1555 v 1525 l 26,80 c 14,45 43,108 64,140 77,119 253,225 440,265 115,25 110,28 110,-61 z m 4102,53 c 211,-54 358,-161 442,-322 57,-109 56,-87 56,-1691 0,-1135 -3,-1483 -12,-1519 -24,-90 -108,-155 -225,-174 -82,-14 -1403,-13 -1403,0 0,8 342,392 500,561 l 35,38 210,11 c 115,6 212,13 215,15 4,2 8,284 9,627 0,343 6,772 11,953 5,182 12,595 15,919 3,324 8,593 11,597 8,14 34,11 136,-15 z m 947,-13 c 112,-38 222,-104 282,-170 43,-47 87,-134 98,-198 6,-33 13,-222 15,-420 2,-198 8,-702 14,-1120 6,-418 13,-896 15,-1063 2,-166 7,-305 10,-308 14,-14 298,62 482,128 137,49 366,160 487,235 197,122 380,292 495,459 81,120 147,260 178,379 8,28 20,70 28,95 24,70 54,180 65,235 6,28 17,82 25,120 23,108 35,197 48,355 9,122 9,166 -5,279 -8,74 -19,138 -24,143 -15,15 -286,-137 -443,-249 -226,-160 -442,-369 -588,-566 -119,-161 -255,-433 -301,-602 -53,-190 -87,-408 -68,-425 3,-3 102,90 220,205 118,116 259,253 314,305 55,52 142,136 194,185 315,300 389,352 288,202 -42,-62 -50,-73 -87,-132 -30,-47 -108,-156 -203,-283 -274,-369 -576,-669 -779,-772 l -43,-22 -17,21 c -9,11 -23,54 -29,93 -7,40 -16,84 -20,98 -16,45 -21,213 -11,300 17,143 40,273 55,315 7,22 20,63 27,90 25,99 175,429 229,505 11,15 20,31 20,34 0,3 20,36 44,73 36,57 233,262 347,365 15,12 46,41 70,63 182,168 403,343 568,450 140,91 331,185 375,185 30,0 97,-244 143,-520 22,-133 22,-681 0,-790 -33,-161 -88,-379 -106,-415 -6,-11 -17,-40 -25,-65 -26,-81 -98,-236 -150,-325 -113,-193 -182,-281 -361,-460 -397,-396 -776,-624 -1160,-696 -86,-17 -308,-17 -392,0 -266,52 -438,205 -473,421 -6,43 -10,618 -10,1683 v 1619 l 43,-7 c 23,-4 75,-19 116,-32 z M 3703,11359 c 507,-254 1009,-683 1272,-1089 147,-228 275,-512 300,-670 4,-25 11,-49 15,-55 15,-20 50,-312 50,-415 0,-88 -25,-283 -41,-311 -9,-18 -16,-15 -101,43 -271,188 -610,493 -798,718 -129,156 -272,390 -296,486 -11,42 8,25 198,-181 176,-191 581,-597 672,-675 94,-80 157,-122 173,-116 14,6 15,22 9,124 -4,64 -11,133 -16,152 -4,19 -14,64 -20,100 -35,194 -170,484 -313,670 -178,231 -392,427 -662,605 -130,85 -383,231 -389,223 -2,-2 -8,-41 -14,-88 -17,-125 -14,-313 8,-500 11,-91 23,-190 26,-220 4,-30 10,-59 14,-65 4,-5 13,-39 20,-75 38,-199 144,-449 272,-646 131,-202 267,-341 444,-457 301,-196 583,-326 813,-372 110,-23 279,-17 336,11 l 40,19 6,140 c 3,77 9,223 13,325 8,212 15,239 87,345 116,169 255,268 414,293 35,6 58,5 65,-2 6,-6 10,-94 10,-241 0,-128 3,-381 7,-563 l 6,-332 h 162 162 l 7,368 c 3,202 9,457 13,566 l 6,199 271,-7 c 149,-4 275,-11 280,-16 5,-5 11,-253 13,-562 3,-304 5,-557 7,-562 2,-9 230,-9 282,0 l 32,6 6,156 c 3,87 8,263 11,392 3,129 10,314 16,410 5,96 11,209 12,250 l 2,75 65,-3 c 230,-9 407,-152 467,-377 21,-76 22,-104 24,-605 3,-516 2,-526 -18,-565 -45,-85 -122,-134 -243,-155 -46,-8 -431,-10 -1305,-8 l -1240,3 -123,37 c -349,107 -682,278 -932,482 -218,177 -420,410 -552,636 -80,139 -208,422 -208,463 0,7 -4,17 -9,23 -11,10 -48,150 -64,239 -7,36 -11,222 -11,465 -1,383 0,411 22,520 13,63 28,140 34,170 5,30 13,60 17,65 4,6 13,35 20,65 16,64 47,130 61,130 6,0 47,-19 93,-41 z m 8560,-1707 c 213,-213 387,-391 387,-395 0,-5 -37,-45 -82,-91 -126,-125 -1254,-1270 -1423,-1443 -82,-84 -151,-153 -155,-153 -5,0 -826,821 -1215,1215 -108,110 -257,261 -331,336 l -135,135 317,315 c 174,173 351,348 393,390 l 76,77 890,1 890,1 z"
       id="path1" />
    <path
       d="m 10292,9445 c -98,-103 -174,-194 -171,-204 2,-6 83,-92 179,-193 96,-100 222,-232 280,-292 58,-60 171,-177 251,-260 l 146,-150 124,130 c 68,71 187,194 264,274 78,80 197,204 265,275 69,72 127,132 130,135 92,93 105,111 88,124 -10,7 -46,39 -81,72 -35,32 -82,76 -105,97 l -41,37 -641,3 -641,2 z"
       id="path2" />
  </g>
</svg>
