<?xml version="1.0" encoding="UTF-8" standalone="no"?>
<svg
   version="1.0"
   width="2000.000000pt"
   height="2000.000000pt"
   viewBox="0 0 2000.000000 2000.000000"
   preserveAspectRatio="xMidYMid meet"
   id="svg2"
   sodipodi:docname="masa.svg"
   inkscape:version="1.4 (86a8ad7, 2024-10-11)"
   xmlns:inkscape="http://www.inkscape.org/namespaces/inkscape"
   xmlns:sodipodi="http://sodipodi.sourceforge.net/DTD/sodipodi-0.dtd"
   xmlns="http://www.w3.org/2000/svg"
   xmlns:svg="http://www.w3.org/2000/svg">
  <defs
     id="defs2" />
  <sodipodi:namedview
     id="namedview2"
     pagecolor="#505050"
     bordercolor="#eeeeee"
     borderopacity="1"
     inkscape:showpageshadow="0"
     inkscape:pageopacity="0"
     inkscape:pagecheckerboard="0"
     inkscape:deskcolor="#505050"
     inkscape:document-units="pt"
     inkscape:zoom="0.207375"
     inkscape:cx="1333.3333"
     inkscape:cy="1333.3333"
     inkscape:window-width="1366"
     inkscape:window-height="705"
     inkscape:window-x="-8"
     inkscape:window-y="-8"
     inkscape:window-maximized="1"
     inkscape:current-layer="g2" />
  <g
     transform="translate(0.000000,2000.000000) scale(0.100000,-0.100000)"
     fill="#000000"
     stroke="none"
     id="g2"
     style="fill:#bed62f;fill-opacity:1">
    <path
       d="m 8248.6335,12788.762 c -408.765,-56.823 -750.771,-294.491 -1001.017,-695.958 -200.2031,-322.235 -262.7681,-604.816 -265.5479,-1210.981 -1.3907,-356.559 -16.677,-717.062 -30.5851,-730.276 -5.5489,-5.281 -68.1264,2.632 -140.4127,18.474 -307.2609,67.369 -529.7066,13.21 -668.7266,-159.774 -43.1024,-55.4586 -51.4492,-56.7728 -187.7,-22.4638 -83.4128,21.1338 -483.8081,9.255 -632.5788,-18.4677 -298.9014,-55.4623 -290.5716,-55.4623 -346.1794,-14.5271 -41.713,30.3698 -66.7356,36.9684 -165.4466,42.2498 -152.9312,9.2448 -291.9619,-15.8622 -535.2591,-95.0848 -55.6067,-18.4638 -154.3202,-54.1491 -221.0539,-79.2356 -70.9074,-29.0552 -125.125,-42.2505 -132.079,-35.6572 -6.9542,6.602 -33.3682,76.6106 -58.39,155.8203 -25.0222,79.2581 -52.839,155.8401 -61.1726,170.3561 -8.3448,14.53 -34.7582,64.736 -58.402,112.245 -25.0213,47.557 -69.5021,126.827 -100.0892,175.642 -218.2855,356.565 -741.0272,839.879 -1251.2625,1159.465 -622.8543,389.592 -671.5081,417.333 -831.3921,493.902 -287.7893,137.341 -532.4882,195.46 -689.58939,165.062 -44.4844,-9.22 -98.7115,-23.765 -118.1716,-32.973 -136.2528,-67.374 -458.7979,-578.441 -526.9237,-837.259 -9.7244,-31.718 -22.2397,-67.376 -29.195,-79.232 -18.0686,-31.7 -66.7381,-276.014 -90.3654,-456.944 -22.242402,-171.663 -18.070402,-736.891 6.952,-930.9904 25.0228,-182.2484 70.9056,-429.1989 90.3687,-482.0195 11.1253,-29.0548 25.0201,-81.8758 30.5845,-118.853 5.562,-35.6564 18.0668,-89.7999 29.1945,-118.8517 11.1252,-29.0528 29.1944,-84.5188 40.3223,-122.8149 11.1276,-39.6172 34.7576,-103.004 54.2169,-142.6232 19.4714,-39.618 34.7564,-73.9533 34.7564,-76.5948 0,-18.4877 233.5736,-402.7764 330.8944,-542.7562 C 1309.6868,7425.8649 2125.7925,6840.849 3062.8503,6601.8214 c 301.6856,-76.5911 218.2734,-73.9538 2239.7558,-73.9538 2096.5524,0 1875.4945,-11.8822 2102.1184,109.6111 152.921,81.8753 176.568,80.5568 378.16,-29.0552 l 147.387,-80.5559 h 1176.152 1176.2405 l 191.88,-183.5579 c 296.098,-283.9236 492.122,-438.4307 650.558,-517.666 54.188,-26.4125 79.284,-30.3772 207.208,-26.4125 100.084,1.3197 169.631,10.5641 220.978,27.7289 186.409,62.0697 439.354,295.8129 679.952,627.278 l 56.945,79.2354 1222.121,6.6017 c 1212.253,7.9249 1223.447,7.9249 1319.353,36.9761 134.802,39.6173 286.372,114.8912 369.832,183.5605 38.866,31.696 73.688,56.7849 79.272,56.7849 4.166,0 45.764,-23.7705 91.646,-52.8206 278.162,-171.6736 631.216,-245.6294 1019.104,-213.9361 335.082,27.734 671.508,114.889 984.378,254.8736 244.634,108.2874 656.173,361.8359 935.654,573.1306 378.125,287.8898 677.074,607.4689 956.549,1023.45 48.616,72.6322 150.144,252.2334 172.376,303.7332 9.736,25.0943 23.637,52.825 30.548,60.7489 31.968,39.6172 162.726,377.6851 200.177,513.7058 127.888,475.4129 148.831,619.3481 148.831,1069.6489 1.432,334.121 -18.067,566.541 -61.222,726.341 -6.893,29.04 -24.958,130.746 -38.873,224.505 -29.237,187.529 -73.712,396.175 -94.473,437.122 -140.539,270.689 -215.545,355.229 -389.32,437.083 -93.217,43.571 -118.193,50.174 -237.756,54.169 -200.179,9.235 -346.133,-29.059 -628.472,-162.422 -241.915,-113.586 -464.325,-250.899 -806.323,-493.918 -203.056,-143.957 -511.622,-384.294 -656.294,-512.373 -36.128,-30.382 -74.994,-56.784 -87.487,-56.784 -23.663,0 -23.663,-17.175 8.317,293.155 15.214,155.835 4.176,338.078 -31.98,512.393 -18.068,92.456 -91.766,290.51 -116.844,318.243 -11.056,10.569 -19.374,25.112 -19.374,30.375 0,17.162 -107.106,145.256 -161.312,194.114 -30.548,26.437 -91.766,68.708 -137.674,95.11 -45.858,25.065 -134.784,75.257 -197.421,112.237 -137.661,79.227 -314.188,150.539 -468.483,190.153 -87.602,22.455 -152.984,29.059 -293.377,29.059 -207.19,1.311 -300.249,-18.466 -464.319,-93.743 l -101.49,-47.547 -65.401,23.75 c -282.213,106.982 -486.531,146.586 -681.258,134.73 -205.788,-13.213 -341.992,-71.313 -483.805,-208.66 -91.773,-88.5 -162.624,-200.744 -212.66,-340.723 l -30.562,-83.209 8.342,-1085.481 c 5.441,-632.565 4.153,-1090.8268 -2.864,-1101.387 -8.331,-11.8886 -54.2,22.4489 -170.943,132.075 -171.061,161.1 -269.724,231.118 -414.392,289.188 l -91.65,36.968 -1384.748,1.338 c -1555.7885,0 -1436.2005,7.941 -1618.3195,-102.991 -57.055,-34.362 -164.044,-122.852 -259.97,-216.597 -123.752,-121.4746 -165.466,-154.5064 -172.376,-137.3488 -9.745,22.4888 2.732,1517.3648 16.65,1951.8128 8.317,265.466 6.898,277.347 -27.814,408.07 -76.445,279.964 -173.793,360.522 -519.958,427.886 -126.567,25.074 -367.068,35.648 -475.487,21.138 z m 319.772,-736.915 c 1.409,-56.763 6.901,-545.39 13.901,-1086.825 6.918,-541.427 13.905,-1302.0924 15.247,-1690.3428 1.403,-388.2493 5.583,-822.722 11.153,-964.0256 l 8.329,-257.5124 132.062,-9.2442 c 72.284,-5.282 207.191,-13.2066 297.539,-18.4849 l 165.47,-7.9273 70.835,-73.9505 c 38.998,-40.9413 146.098,-151.8669 237.751,-245.6294 91.766,-95.081 227.986,-236.3849 303.122,-312.9763 73.703,-77.917 134.931,-147.9076 134.931,-155.8292 0,-11.8865 -240.608,-14.5273 -989.97,-11.8865 l -991.263,3.9638 -79.218,30.3708 c -80.67,30.3745 -157.119,97.7239 -197.432,172.9972 -19.475,35.6551 -22.239,256.1899 -22.239,2053.5032 v 2013.8741 l 36.147,105.615 c 19.431,59.475 59.784,142.674 88.955,184.932 107.068,157.141 351.745,297.105 611.715,349.956 159.866,33.036 152.965,36.961 152.965,-80.578 z m 5702.9025,69.978 c 293.358,-71.285 497.834,-212.564 614.575,-425.184 79.272,-143.972 77.846,-114.898 77.846,-2233.1202 0,-1498.8583 -4.158,-1958.422 -16.64,-2005.9603 -33.402,-118.8535 -150.251,-204.6903 -312.864,-229.784 -113.984,-18.4862 -1950.58,-17.1661 -1950.58,0 0,10.5655 475.488,517.6701 695.165,740.8481 l 48.628,50.182 291.944,14.5266 c 159.88,7.9234 294.796,17.1679 298.961,19.808 5.586,2.6402 11.05,375.0435 12.482,828.0029 0,452.9614 8.317,1019.4861 15.322,1258.5119 6.91,240.337 16.659,785.732 20.811,1213.649 4.165,427.857 11.195,783.063 15.335,788.374 11.061,18.487 47.316,14.491 189.015,-19.854 z m 1316.615,-17.133 c 155.727,-50.201 308.722,-137.349 392.039,-224.496 59.803,-62.071 121.039,-176.98 136.361,-261.489 8.342,-43.579 18.066,-293.156 20.799,-554.647 2.745,-261.475 11.175,-927.042 19.499,-1479.0434 8.318,-552.005 18.066,-1183.2434 20.812,-1403.7781 2.84,-219.2164 9.736,-402.7787 13.89,-406.7395 19.498,-18.4895 414.414,81.8746 670.214,169.0353 190.428,64.7048 508.769,211.2936 676.966,310.3355 273.89,161.1104 528.388,385.6099 688.268,606.1454 112.591,158.4728 204.344,343.3538 247.375,500.5018 11.169,36.9747 27.828,92.4387 38.997,125.4536 33.402,92.4416 75.132,237.7063 90.347,310.3304 8.317,36.981 23.664,108.308 34.821,158.4874 31.98,142.6166 48.627,260.1476 66.706,468.8066 12.47,161.123 12.47,219.199 -7.03,368.445 -11.049,97.706 -26.396,182.21 -33.28,188.821 -20.926,19.81 -397.625,-180.913 -615.882,-328.806 -314.296,-211.305 -614.582,-487.294 -817.48,-747.446 -165.478,-212.6255 -354.606,-571.8262 -418.556,-795.0016 -73.688,-250.9122 -120.888,-538.7972 -94.498,-561.2471 4.164,-3.9615 141.8,118.8528 305.87,270.7185 164.033,153.1848 360.034,334.1059 436.466,402.7774 76.558,68.6688 197.471,179.5991 269.75,244.3078 437.898,396.183 540.858,464.8276 400.477,266.7618 -58.485,-81.8819 -69.553,-96.4082 -121.015,-174.3223 -41.73,-62.0674 -150.144,-206.0102 -282.22,-373.725 -380.965,-487.294 -800.833,-883.4674 -1083.04,-1019.4871 l -59.784,-29.0545 -23.664,27.7348 c -12.47,14.5245 -31.964,71.3088 -40.286,122.8126 -9.762,52.823 -22.232,110.9279 -27.804,129.4171 -22.244,59.425 -29.16,281.2831 -15.348,396.1715 23.652,188.8463 55.628,360.5209 76.552,415.9844 9.738,29.0537 27.828,83.1974 37.566,118.8525 34.702,130.7381 243.222,566.5434 318.328,666.8882 15.215,19.817 27.816,40.949 27.816,44.917 0,3.953 27.816,47.519 61.11,96.385 50.048,75.283 323.926,345.997 482.506,482.008 20.799,15.878 63.962,54.157 97.249,83.193 253.071,221.869 560.351,452.973 789.766,594.269 194.605,120.173 460.165,244.302 521.264,244.302 41.717,0 134.916,-322.216 198.865,-686.681 30.554,-175.635 30.554,-899.3353 0,-1043.2645 -45.896,-212.6176 -122.314,-500.5037 -147.397,-548.0444 -8.319,-14.5282 -23.646,-52.8248 -34.715,-85.8375 -36.121,-106.9667 -136.216,-311.6582 -208.616,-429.1895 -157.04,-254.8739 -252.957,-371.0827 -501.884,-607.4669 -551.92,-522.95 -1078.756,-824.0427 -1612.741,-919.1244 -119.481,-22.4509 -428.173,-22.4509 -544.903,0 -369.808,68.6687 -608.985,270.718 -657.6,555.9632 -8.45,56.7855 -13.89,816.1195 -13.89,2222.54 v 2138.003 l 59.773,-9.231 c 31.981,-5.26 104.247,-25.114 161.181,-42.247 z M 1190.1249,11518.353 c 704.8769,-335.426 1402.8004,-901.962 1768.4501,-1438.106 204.3777,-301.1116 382.3297,-676.1528 417.0873,-884.8024 5.5632,-33.0142 15.2996,-64.7085 20.8508,-72.6313 20.8616,-26.4142 69.518,-412.0228 69.518,-548.0423 0,-116.2089 -34.7616,-373.7244 -57.0006,-410.6993 -12.5174,-23.7704 -22.2418,-19.8099 -140.4241,56.7835 -376.7653,248.2698 -848.071,651.0461 -1109.4463,948.177 -179.3435,206.0112 -378.1556,515.0268 -411.5243,641.7974 -15.3008,55.4704 11.1144,33.0134 275.2733,-239.0193 244.6994,-252.2313 807.7603,-788.3867 934.2755,-891.3923 130.689,-105.647 218.2729,-161.1125 240.5296,-153.1877 19.4569,7.9226 20.8469,29.0522 12.5015,163.7533 -5.5626,84.5141 -15.2869,175.6359 -22.239,200.7253 -5.5645,25.0917 -19.4752,84.5195 -27.8056,132.0574 -48.6657,256.1953 -236.3539,639.1633 -435.1667,884.7824 -247.4679,305.0813 -544.9947,563.8983 -920.3687,798.9603 -180.7335,112.245 -532.4776,305.067 -540.8224,294.469 -2.7804,-2.645 -11.1264,-54.124 -19.458,-116.182 -23.6438,-165.095 -19.4728,-413.349 11.1132,-660.314 15.2996,-120.164 31.9772,-250.8823 36.1503,-290.5042 5.5633,-39.6406 13.9069,-77.9193 19.4587,-85.8375 5.5632,-6.6107 18.0806,-51.5162 27.8157,-99.0533 52.8281,-262.7943 200.1928,-592.9389 378.1568,-853.0947 182.1249,-266.7569 371.2033,-450.3179 617.2923,-603.5035 418.4656,-258.8339 810.5305,-430.5101 1130.2966,-491.2578 152.9287,-30.3736 387.8911,-22.4497 467.1442,14.5269 l 55.6085,25.0911 8.346,184.8817 c 4.1585,101.6833 12.5047,294.4879 18.0668,429.1887 11.1276,279.9635 20.8514,315.6175 120.9532,455.601 161.2741,223.1775 354.5249,353.9129 575.5794,386.9273 48.6663,7.9248 80.6424,6.6039 90.3706,-2.6387 8.3397,-7.9261 13.9042,-124.1354 13.9042,-318.2607 0,-169.0336 4.173,-503.1411 9.735,-743.4879 l 8.3418,-438.4334 h 225.2186 225.2268 l 9.7357,485.975 c 4.1732,266.7583 12.5192,603.5044 18.0784,747.4502 l 8.3357,262.7965 376.7739,-9.2468 c 207.1497,-5.2825 382.3321,-14.525 389.2741,-21.1276 6.9546,-6.6045 15.2982,-334.1086 18.0805,-742.1688 4.1731,-401.4553 6.9547,-735.5613 9.7371,-742.1668 2.7676,-11.8832 319.7603,-11.8832 392.0509,0 l 44.494,7.9233 8.3448,206.0113 c 4.164,114.8927 11.1144,347.3133 15.2876,517.6669 4.1716,170.3566 13.9068,414.6643 22.2384,541.4422 6.956,126.7724 15.3008,275.9993 16.693,330.1411 l 2.7822,99.0454 90.3648,-3.9624 c 319.7668,-11.8857 565.8454,-200.7273 649.2744,-497.8582 29.187,-100.3647 30.582,-137.3405 33.357,-798.9521 4.171,-681.4187 2.79,-694.6266 -25.025,-746.1266 -62.571,-112.2516 -169.612,-176.9586 -337.8396,-204.6931 -63.9535,-10.5636 -599.2112,-13.2044 -1814.3234,-10.5636 l -1723.9616,3.9638 -171.005,48.8612 c -485.2125,141.3025 -948.1854,367.1222 -1295.755,636.5185 -303.0769,233.7449 -583.9129,541.441 -767.44,839.8897 -111.2158,183.5615 -289.18089,557.2851 -289.18089,611.4293 0,9.2447 -5.5614,22.4481 -12.5047,30.3723 -15.2976,13.2076 -66.7349,198.089 -88.9866,315.6196 -9.7243,47.5351 -15.2864,293.1709 -15.2864,614.0867 -1.3927,505.765 0,542.732 30.5846,686.7 18.0667,83.185 38.9295,184.863 47.2612,224.482 6.9559,39.621 18.0823,79.231 23.6456,85.834 5.5632,7.936 18.0692,46.243 27.8043,85.822 22.2409,84.525 65.34589,171.692 84.80289,171.692 8.3454,0 65.3448,-25.097 129.298,-54.131 z M 13091.018,9264.1137 c 296.108,-281.2843 538.025,-516.3459 538.025,-521.6298 0,-6.601 -51.474,-59.4243 -114.017,-120.1718 -175.201,-165.0722 -1743.372,-1677.1369 -1978.378,-1905.5979 -113.991,-110.9277 -209.934,-202.0476 -215.506,-202.0476 -6.898,0 -1148.316,1084.1941 -1689.1855,1604.504 -150.134,145.2636 -357.324,344.6725 -460.158,443.7157 l -187.698,178.2792 440.67,415.9826 c 241.898,228.4594 488.08,459.5608 546.457,515.0235 l 105.6685,101.6889 1237.348,1.3174 1237.337,1.3202 z"
       id="path1"
       style="fill:#027384;fill-opacity:1;stroke-width:1.35499" />
    <path
       d="m 10350.786,8990.7532 c -136.241,-136.0184 -241.898,-256.1917 -237.744,-269.3989 2.732,-7.922 115.416,-121.495 248.792,-254.8712 133.472,-132.0563 308.712,-306.375 389.308,-385.6108 80.596,-79.2332 237.732,-233.7415 348.996,-343.3489 l 202.912,-198.0863 172.495,171.6753 c 94.497,93.7575 259.975,256.1911 366.968,361.8374 108.4,105.6464 273.877,269.3999 368.496,363.1614 95.929,95.0805 176.525,174.3164 180.679,178.2761 127.898,122.8143 145.99,146.5861 122.326,163.7525 -13.901,9.2432 -63.949,51.5027 -112.564,95.0829 -48.76,42.257 -113.997,100.3628 -145.98,128.0965 l -57.064,48.8632 -891.18,3.9581 -891.192,2.6435 z"
       id="path2"
       style="fill:#027384;fill-opacity:1;stroke-width:1.35499" />
  </g>
</svg>
