<?xml version="1.0" encoding="utf-8"?>
<!-- Generator: Adobe Illustrator 28.4.1, SVG Export Plug-In . SVG Version: 6.00 Build 0)  -->
<svg version="1.1"
	 id="svg2" xmlns:svg="http://www.w3.org/2000/svg" xmlns:sodipodi="http://sodipodi.sourceforge.net/DTD/sodipodi-0.dtd" xmlns:inkscape="http://www.inkscape.org/namespaces/inkscape" sodipodi:docname="masa.svg"
	 xmlns="http://www.w3.org/2000/svg" xmlns:xlink="http://www.w3.org/1999/xlink" x="0px" y="0px" viewBox="0 0 2000 2000"
	 style="enable-background:new 0 0 2000 2000;" xml:space="preserve">
<sodipodi:namedview  bordercolor="#eeeeee" borderopacity="1" id="namedview2" inkscape:current-layer="g2" inkscape:cx="1333.3333" inkscape:cy="1333.3333" inkscape:deskcolor="#505050" inkscape:document-units="pt" inkscape:pagecheckerboard="0" inkscape:pageopacity="0" inkscape:showpageshadow="0" inkscape:window-height="705" inkscape:window-maximized="1" inkscape:window-width="1366" inkscape:window-x="-8" inkscape:window-y="-8" inkscape:zoom="0.207375" pagecolor="#505050">
	</sodipodi:namedview>
<g id="g2" transform="translate(0.000000,2000.000000) scale(0.100000,-0.100000)">
	<path id="path1" d="M8955.5,12136.3c-250.5-34.8-460-180.5-613.4-426.5c-122.7-197.5-161-370.6-162.7-742
		c-0.9-218.5-10.2-439.4-18.7-447.5c-3.4-3.2-41.7,1.6-86,11.3c-188.3,41.3-324.6,8.1-409.8-97.9c-26.4-34-31.5-34.8-115-13.8
		c-51.1,13-296.5,5.7-387.6-11.3c-183.2-34-178.1-34-212.1-8.9c-25.6,18.6-40.9,22.7-101.4,25.9c-93.7,5.7-178.9-9.7-328-58.3
		c-34.1-11.3-94.6-33.2-135.5-48.6c-43.4-17.8-76.7-25.9-80.9-21.8c-4.3,4-20.4,46.9-35.8,95.5c-15.3,48.6-32.4,95.5-37.5,104.4
		c-5.1,8.9-21.3,39.7-35.8,68.8c-15.3,29.1-42.6,77.7-61.3,107.6c-133.8,218.5-454.1,514.6-766.7,710.5
		c-381.7,238.7-411.5,255.7-509.4,302.6c-176.3,84.2-326.3,119.8-422.6,101.1c-27.3-5.6-60.5-14.6-72.4-20.2
		c-83.5-41.3-281.1-354.4-322.9-513c-6-19.4-13.6-41.3-17.9-48.6c-11.1-19.4-40.9-169.1-55.4-280c-13.6-105.2-11.1-451.5,4.3-570.5
		c15.3-111.7,43.4-263,55.4-295.4c6.8-17.8,15.3-50.2,18.7-72.8c3.4-21.8,11.1-55,17.9-72.8c6.8-17.8,17.9-51.8,24.7-75.3
		c6.8-24.3,21.3-63.1,33.2-87.4c11.9-24.3,21.3-45.3,21.3-46.9c0-11.3,143.1-246.8,202.8-332.6
		c358.7-521.9,858.7-880.4,1432.9-1026.9c184.9-46.9,133.7-45.3,1372.4-45.3c1284.7,0,1149.2-7.3,1288.1,67.2
		c93.7,50.2,108.2,49.4,231.7-17.8l90.3-49.4h720.7h720.8l117.6-112.5c181.4-174,301.6-268.7,398.6-317.2
		c33.2-16.2,48.6-18.6,127-16.2c61.3,0.8,103.9,6.5,135.4,17c114.2,38,269.2,181.3,416.6,384.4l34.9,48.6l748.9,4
		c742.8,4.9,749.7,4.9,808.4,22.7c82.6,24.3,175.5,70.4,226.6,112.5c23.8,19.4,45.2,34.8,48.6,34.8c2.6,0,28-14.6,56.2-32.4
		c170.4-105.2,386.8-150.5,624.5-131.1c205.3,17,411.5,70.4,603.2,156.2c149.9,66.4,402.1,221.7,573.3,351.2
		c231.7,176.4,414.9,372.2,586.1,627.1c29.8,44.5,92,154.6,105.6,186.1c6,15.4,14.5,32.4,18.7,37.2
		c19.6,24.3,99.7,231.4,122.7,314.8c78.4,291.3,91.2,379.5,91.2,655.4c0.9,204.7-11.1,347.2-37.5,445.1
		c-4.2,17.8-15.3,80.1-23.8,137.6c-17.9,114.9-45.2,242.8-57.9,267.9c-86.1,165.9-132.1,217.7-238.6,267.8
		c-57.1,26.7-72.4,30.7-145.7,33.2c-122.7,5.7-212.1-17.8-385.1-99.5c-148.2-69.6-284.5-153.7-494.1-302.7
		c-124.4-88.2-313.5-235.5-402.2-314c-22.1-18.6-46-34.8-53.6-34.8c-14.5,0-14.5-10.5,5.1,179.6c9.3,95.5,2.6,207.2-19.6,314
		c-11.1,56.7-56.2,178-71.6,195c-6.8,6.5-11.9,15.4-11.9,18.6c0,10.5-65.6,89-98.8,118.9c-18.7,16.2-56.2,42.1-84.4,58.3
		c-28.1,15.4-82.6,46.1-121,68.8c-84.4,48.5-192.5,92.2-287.1,116.5c-53.7,13.8-93.7,17.8-179.8,17.8c-127,0.8-184-11.3-284.5-57.4
		l-62.2-29.1l-40.1,14.6c-172.9,65.6-298.1,89.8-417.4,82.6c-126.1-8.1-209.6-43.7-296.5-127.9c-56.2-54.2-99.6-123-130.3-208.8
		l-18.7-51l5.1-665.1c3.3-387.6,2.5-668.4-1.8-674.9c-5.1-7.3-33.2,13.8-104.7,80.9c-104.8,98.7-165.3,141.6-253.9,177.2l-56.2,22.7
		l-848.5,0.8c-953.3,0-880,4.9-991.6-63.1c-35-21.1-100.5-75.3-159.3-132.7c-75.8-74.4-101.4-94.7-105.6-84.2
		c-6,13.8,1.7,929.8,10.2,1196c5.1,162.7,4.2,169.9-17,250c-46.8,171.6-106.5,220.9-318.6,262.2
		C9169.3,12138.7,9022,12145.2,8955.5,12136.3L8955.5,12136.3z M9151.5,11684.8c0.9-34.8,4.2-334.2,8.5-666
		c4.2-331.8,8.5-797.9,9.3-1035.8c0.9-237.9,3.4-504.1,6.8-590.7l5.1-157.8l80.9-5.7c44.3-3.2,127-8.1,182.3-11.3l101.4-4.9
		l43.4-45.3c23.9-25.1,89.5-93.1,145.7-150.5c56.2-58.3,139.7-144.8,185.7-191.8c45.2-47.7,82.7-90.6,82.7-95.5
		c0-7.3-147.4-8.9-606.6-7.3l-607.4,2.4l-48.5,18.6c-49.4,18.6-96.3,59.9-121,106c-11.9,21.8-13.6,157-13.6,1258.3v1234l22.1,64.7
		c11.9,36.4,36.6,87.4,54.5,113.3c65.6,96.3,215.5,182.1,374.8,214.4C9155.7,11754.4,9151.5,11756.8,9151.5,11684.8z M12646,11727.6
		c179.8-43.7,305.1-130.3,376.6-260.5c48.6-88.2,47.7-70.4,47.7-1368.4c0-918.4-2.5-1200-10.2-1229.2
		c-20.5-72.8-92.1-125.4-191.7-140.8c-69.8-11.3-1195.2-10.5-1195.2,0c0,6.5,291.4,317.2,426,454l29.8,30.8l178.9,8.9
		c98,4.9,180.6,10.5,183.2,12.1c3.4,1.6,6.8,229.8,7.6,507.4c0,277.6,5.1,624.7,9.4,771.2c4.2,147.3,10.2,481.5,12.8,743.7
		c2.6,262.2,6.9,479.8,9.4,483.1C12537,11751.1,12559.2,11748.7,12646,11727.6L12646,11727.6z M13452.8,11717.1
		c95.4-30.8,189.2-84.2,240.2-137.6c36.6-38,74.2-108.4,83.6-160.2c5.1-26.7,11.1-179.6,12.7-339.9c1.7-160.2,6.8-568.1,11.9-906.3
		c5.1-338.2,11.1-725,12.8-860.2c1.7-134.3,6-246.8,8.5-249.2c11.9-11.3,253.9,50.2,410.7,103.6c116.7,39.6,311.8,129.5,414.8,190.2
		c167.8,98.7,323.8,236.3,421.7,371.4c69,97.1,125.2,210.4,151.6,306.7c6.8,22.7,17.1,56.6,23.9,76.9c20.5,56.6,46,145.7,55.4,190.2
		c5.1,22.7,14.5,66.4,21.3,97.1c19.6,87.4,29.8,159.4,40.9,287.3c7.6,98.7,7.6,134.3-4.3,225.8c-6.8,59.9-16.2,111.7-20.4,115.7
		c-12.8,12.1-243.6-110.9-377.4-201.5c-192.6-129.5-376.6-298.6-500.9-458c-101.4-130.3-217.3-350.4-256.5-487.1
		c-45.2-153.7-74.1-330.2-57.9-343.9c2.6-2.4,86.9,72.8,187.4,165.9c100.5,93.9,220.6,204.7,267.5,246.8
		c46.9,42.1,121,110.1,165.3,149.7c268.3,242.8,331.4,284.8,245.4,163.5c-35.8-50.2-42.6-59.1-74.2-106.8
		c-25.6-38-92-126.2-172.9-229c-233.4-298.6-490.7-541.4-663.6-624.7l-36.6-17.8l-14.5,17c-7.6,8.9-19.6,43.7-24.7,75.3
		c-6,32.4-13.6,68-17,79.3c-13.6,36.4-17.9,172.4-9.4,242.8c14.5,115.7,34.1,220.9,46.9,254.9c6,17.8,17.1,51,23,72.8
		c21.3,80.1,149,347.2,195.1,408.6c9.3,12.1,17,25.1,17,27.5c0,2.4,17,29.1,37.4,59.1c30.7,46.1,198.5,212,295.7,295.4
		c12.7,9.7,39.2,33.2,59.6,51c155.1,136,343.4,277.6,483.9,364.1c119.2,73.6,282,149.7,319.4,149.7c25.6,0,82.7-197.4,121.9-420.8
		c18.7-107.6,18.7-551.1,0-639.3c-28.1-130.3-74.9-306.7-90.3-335.8c-5.1-8.9-14.5-32.4-21.3-52.6c-22.1-65.5-83.5-191-127.8-263
		c-96.2-156.2-155-227.4-307.5-372.2c-338.2-320.4-661-504.9-988.2-563.2c-73.2-13.8-262.4-13.8-333.9,0
		c-226.6,42.1-373.2,165.9-403,340.7c-5.2,34.8-8.5,500.1-8.5,1361.9v1310.1l36.6-5.7
		C13373.6,11739.8,13417.9,11727.6,13452.8,11717.1L13452.8,11717.1z M4630.4,11357.8c431.9-205.5,859.6-552.7,1083.6-881.2
		c125.2-184.5,234.3-414.3,255.6-542.2c3.4-20.2,9.4-39.7,12.8-44.5c12.8-16.2,42.6-252.5,42.6-335.8c0-71.2-21.3-229-34.9-251.7
		c-7.7-14.6-13.6-12.1-86,34.8c-230.9,152.1-519.7,398.9-679.8,581c-109.9,126.2-231.7,315.6-252.2,393.3
		c-9.4,34,6.8,20.2,168.7-146.5c149.9-154.6,495-483.1,572.5-546.2c80.1-64.7,133.7-98.7,147.4-93.9c11.9,4.9,12.8,17.8,7.7,100.3
		c-3.4,51.8-9.4,107.6-13.6,123c-3.4,15.4-11.9,51.8-17,80.9c-29.8,157-144.8,391.7-266.7,542.2c-151.6,186.9-334,345.5-564,489.6
		c-110.7,68.8-326.3,186.9-331.4,180.4c-1.7-1.6-6.8-33.2-11.9-71.2c-14.5-101.2-11.9-253.3,6.8-404.6c9.4-73.6,19.6-153.7,22.2-178
		c3.4-24.3,8.5-47.7,11.9-52.6c3.4-4.1,11.1-31.6,17-60.7c32.4-161,122.7-363.3,231.7-522.7c111.6-163.5,227.5-275.9,378.3-369.8
		c256.4-158.6,496.7-263.8,692.6-301c93.7-18.6,237.7-13.8,286.2,8.9l34.1,15.4l5.1,113.3c2.5,62.3,7.7,180.5,11.1,263
		c6.8,171.6,12.8,193.4,74.1,279.2c98.8,136.8,217.2,216.9,352.7,237.1c29.8,4.9,49.4,4,55.4-1.6c5.1-4.9,8.5-76.1,8.5-195
		c0-103.6,2.6-308.3,6-455.6l5.1-268.7h138h138l6,297.8c2.6,163.5,7.7,369.8,11.1,458l5.1,161l230.9-5.7
		c126.9-3.2,234.3-8.9,238.5-12.9c4.3-4,9.4-204.7,11.1-454.8c2.6-246,4.3-450.7,6-454.8c1.7-7.3,195.9-7.3,240.2,0l27.3,4.9
		l5.1,126.2c2.6,70.4,6.8,212.8,9.4,317.2c2.6,104.4,8.5,254.1,13.6,331.8c4.3,77.7,9.4,169.1,10.2,202.3l1.7,60.7l55.4-2.4
		c195.9-7.3,346.7-123,397.9-305.1c17.9-61.5,18.7-84.2,20.4-489.6c2.6-417.5,1.7-425.6-15.3-457.2
		c-38.3-68.8-103.9-108.4-207-125.4c-39.2-6.5-367.2-8.1-1111.7-6.5l-1056.4,2.4l-104.8,29.9c-297.3,86.6-581,225-794,390
		c-185.7,143.2-357.8,331.8-470.3,514.7c-68.1,112.5-177.2,341.5-177.2,374.7c0,5.7-3.4,13.8-7.7,18.6
		c-9.4,8.1-40.9,121.4-54.5,193.4c-6,29.1-9.4,179.6-9.4,376.3c-0.9,309.9,0,332.6,18.7,420.8c11.1,51,23.9,113.3,29,137.6
		c4.3,24.3,11.1,48.5,14.5,52.6c3.4,4.9,11.1,28.3,17,52.6c13.6,51.8,40,105.2,52,105.2C4556.2,11391,4591.2,11375.6,4630.4,11357.8
		L4630.4,11357.8z M11922.8,9976.5c181.4-172.4,329.7-316.4,329.7-319.6c0-4-31.5-36.4-69.9-73.6
		c-107.4-101.2-1068.3-1027.7-1212.3-1167.7c-69.8-68-128.6-123.8-132.1-123.8c-4.2,0-703.6,664.4-1035.1,983.2
		c-92,89-219,211.2-282,271.9l-115,109.2l270,254.9c148.2,140,299.1,281.6,334.8,315.6l64.8,62.3l758.2,0.8l758.2,0.8
		L11922.8,9976.5z"/>
	<path id="path2" d="M10243.7,9809c-83.5-83.3-148.2-157-145.7-165.1c1.7-4.9,70.7-74.4,152.5-156.2
		c81.8-80.9,189.2-187.7,238.6-236.3c49.4-48.6,145.7-143.2,213.9-210.4l124.3-121.4l105.7,105.2c57.9,57.5,159.3,157,224.9,221.7
		c66.4,64.7,167.8,165.1,225.8,222.5c58.8,58.3,108.2,106.8,110.7,109.2c78.4,75.3,89.5,89.8,75,100.3c-8.5,5.7-39.2,31.6-69,58.3
		c-29.9,25.9-69.9,61.5-89.5,78.5l-35,29.9l-546.1,2.4l-546.1,1.6L10243.7,9809z"/>
</g>
</svg>
