<?xml version="1.0" encoding="UTF-8" standalone="no"?>
<svg
   version="1.0"
   width="2000.000000pt"
   height="2000.000000pt"
   viewBox="0 0 2000.000000 2000.000000"
   preserveAspectRatio="xMidYMid meet"
   id="svg2"
   sodipodi:docname="elmasa.svg"
   inkscape:version="1.4 (86a8ad7, 2024-10-11)"
   xmlns:inkscape="http://www.inkscape.org/namespaces/inkscape"
   xmlns:sodipodi="http://sodipodi.sourceforge.net/DTD/sodipodi-0.dtd"
   xmlns="http://www.w3.org/2000/svg"
   xmlns:svg="http://www.w3.org/2000/svg">
  <defs
     id="defs2" />
  <sodipodi:namedview
     id="namedview2"
     pagecolor="#505050"
     bordercolor="#eeeeee"
     borderopacity="1"
     inkscape:showpageshadow="0"
     inkscape:pageopacity="0"
     inkscape:pagecheckerboard="0"
     inkscape:deskcolor="#505050"
     inkscape:document-units="pt"
     inkscape:zoom="0.207375"
     inkscape:cx="1333.3333"
     inkscape:cy="1333.3333"
     inkscape:window-width="1366"
     inkscape:window-height="705"
     inkscape:window-x="-8"
     inkscape:window-y="-8"
     inkscape:window-maximized="1"
     inkscape:current-layer="g2" />
  <g
     transform="matrix(0.09107914,0,0,-0.08294211,25.991579,1789.7012)"
     fill="#000000"
     stroke="none"
     id="g2">
    <path
       d="m 8736.0713,13145.223 c -466.9183,-67.413 -857.6106,-349.374 -1143.4881,-825.671 -228.6977,-382.268 -300.1672,-717.559 -303.3385,-1436.7 -1.5818,-423.007 -19.0574,-850.698 -34.9394,-866.4 -6.3443,-6.282 -77.8183,3.132 -160.3995,21.935 -350.9877,79.915 -605.1062,15.664 -763.909,-189.5386 -49.2398,-65.7908 -58.7568,-67.4035 -214.4078,-26.6193 -95.2951,25.0783 -552.6852,10.9469 -722.6059,-22.0115 -341.4683,-65.7591 -331.9321,-65.7591 -395.4606,-17.16 -47.6445,36.0314 -76.2341,43.799 -188.9902,50.1184 -174.7064,10.9476 -333.5127,-18.81 -611.4464,-112.7878 -63.5285,-21.9917 -176.2845,-64.2443 -252.5188,-94.0145 -80.9909,-34.4684 -142.9414,-50.1522 -150.8833,-42.3165 -7.939,7.8481 -38.1072,90.8723 -66.7032,184.8848 -28.5723,93.97 -60.3364,184.8281 -69.8727,202.1118 -9.5188,17.2381 -39.7043,76.7162 -66.7038,133.1372 -28.5887,56.434 -79.4089,150.439 -114.3453,208.381 -249.3516,423 -846.4919,996.466 -1429.3477,1375.584 -711.508,462.163 -767.0803,495.102 -949.7244,585.943 -328.75788,163.009 -608.27277,231.836 -787.7285,195.861 -50.81928,-10.95 -112.76958,-28.22 -134.99844,-39.17 -155.634786,-79.925 -524.09779,-686.267 -601.91189,-993.309 -11.11411,-37.578 -25.41592,-79.895 -33.35751,-93.965 -20.63807,-37.665 -76.22448,-327.467 -103.22037,-542.041 -25.41694,-203.757 -20.64663,-874.311 7.94027,-1104.6093 28.57479,-216.209 80.99264,-509.1866 103.22169,-571.8538 12.70655,-34.4684 28.5891,-97.1357 34.9365,-141.0078 6.36103,-42.2982 20.64988,-106.5358 33.35851,-140.9947 12.70688,-34.475 33.35602,-100.2766 46.05219,-145.7133 12.70743,-47.0009 39.70647,-122.2021 61.94818,-169.2 22.22904,-47.0029 39.70741,-87.7399 39.70741,-90.8734 0,-21.9334 266.805624,-477.8511 377.98073,-643.9187 C 809.52922,6782.7654 1741.7787,6088.7144 2812.2125,5805.1335 c 344.6222,-90.869 249.3298,-87.7371 2558.5268,-87.7371 2394.9574,0 2142.4378,-14.0961 2401.3144,130.0402 174.6935,97.1346 201.6961,95.5713 431.9743,-34.469 l 168.3456,-95.5712 H 9715.97 11059.559 l 219.128,-217.7724 c 338.366,-336.8455 562.251,-520.1487 743.251,-614.1536 62.009,-31.3325 90.562,-36.0351 236.612,-31.3325 114.341,1.5628 193.757,12.5369 252.559,32.8993 212.909,73.636 501.86,350.9413 776.605,744.1862 l 65.212,94.0082 1395.908,7.8345 c 1384.896,9.4027 1397.663,9.4027 1507.215,43.8705 154.035,46.9992 327.2,136.2979 422.42,217.772 44.445,37.601 84.193,67.3715 90.558,67.3715 4.773,0 52.482,-28.2037 104.766,-62.6756 317.646,-203.6671 721.058,-291.4024 1164.192,-253.8039 382.717,32.8991 767.001,136.3014 1124.347,302.3759 279.574,128.4703 749.642,429.2838 1068.833,679.9576 432.017,341.5409 773.423,720.683 1092.66,1214.2051 55.616,86.1766 171.578,299.2476 196.946,360.3422 11.141,29.7692 27.134,62.672 34.944,72.0752 36.466,47.0042 185.897,448.0779 228.781,609.4475 146.054,564.0156 169.828,734.8053 169.828,1269.0949 1.62,396.353 -20.54,672.075 -69.84,861.669 -7.957,34.422 -28.553,155.13 -44.497,266.339 -33.331,222.448 -84.218,470.021 -107.949,518.576 -160.431,321.172 -246.215,421.437 -444.725,518.594 -106.379,51.683 -134.909,59.498 -271.56,64.248 -228.654,10.952 -395.45,-34.465 -717.901,-192.726 -276.337,-134.729 -530.363,-297.703 -921.04,-585.98 -231.814,-170.762 -584.416,-455.908 -749.615,-607.853 -41.315,-36.038 -85.766,-67.403 -100.138,-67.403 -26.938,0 -26.938,-20.371 9.576,347.785 17.529,184.922 4.796,401.113 -36.514,607.861 -20.746,109.743 -104.772,344.762 -133.468,377.643 -12.584,12.541 -22.142,29.773 -22.142,36.034 0,20.391 -122.343,172.302 -184.206,230.304 -35.065,31.336 -104.909,81.456 -157.224,112.86 -52.475,29.715 -154.205,89.23 -225.636,133.078 -157.224,94.035 -358.937,178.677 -535.163,225.637 -100.11,26.652 -174.731,34.509 -335.162,34.509 -236.64,1.595 -343.045,-21.991 -530.345,-111.275 l -115.932,-56.397 -74.637,28.183 c -322.422,126.916 -555.905,173.901 -778.318,159.821 -235.041,-15.671 -390.674,-84.563 -552.69,-247.537 -104.773,-105.01 -185.782,-238.16 -242.866,-404.21 l -34.893,-98.721 9.374,-1287.771 c 6.368,-750.522 4.801,-1294.1379 -3.183,-1306.6577 -9.398,-14.1309 -61.879,26.5947 -195.324,156.646 -195.348,191.0867 -308.071,274.1437 -473.269,343.0867 l -104.796,43.885 -1581.811,1.568 c -1777.183,0 -1640.53,9.382 -1848.609,-122.196 -65.092,-40.755 -187.378,-145.709 -296.936,-256.8899 -141.445,-144.2028 -189.098,-183.3686 -196.938,-163.0114 -11.154,26.6486 3.187,1800.1813 18.995,2315.6203 9.568,314.891 7.951,329.024 -31.741,484.124 -87.375,332.129 -198.525,427.695 -593.9868,507.628 -144.5013,29.709 -419.2534,42.251 -543.1429,25.053 z m 365.2985,-874.21 c 1.5954,-67.39 7.8954,-647.087 15.8466,-1289.441 7.9572,-642.349 15.909,-1544.7834 17.4965,-2005.3935 1.5914,-460.6191 6.3626,-976.0665 12.6734,-1143.7112 l 9.5349,-305.5016 150.8655,-10.9737 c 82.592,-6.2666 236.6334,-15.6601 339.9283,-21.9327 l 188.969,-9.3996 81.007,-87.7403 c 44.481,-48.5673 166.786,-180.1715 271.571,-291.4021 104.743,-112.8069 260.395,-280.449 346.157,-371.3209 84.216,-92.4341 154.061,-175.4693 154.061,-184.8675 0,-14.1025 -274.752,-17.2392 -1130.7341,-14.1025 l -1132.3619,4.6988 -90.5285,36.0381 c -92.1233,36.0322 -179.4704,115.9336 -225.5244,205.2396 -22.2264,42.3013 -25.4158,303.9445 -25.4158,2436.2445 v 2389.2456 l 41.298,125.346 c 22.2296,70.541 68.2946,169.175 101.6414,219.347 122.291,186.414 401.8266,352.464 698.7951,415.15 182.6154,39.17 174.72,43.921 174.72,-95.523 z m 6514.6082,83.034 c 335.181,-84.663 568.643,-252.281 701.882,-504.487 90.638,-170.822 89.047,-136.269 89.047,-2649.3433 0,-1778.2334 -4.8,-2323.443 -18.982,-2379.8505 -38.118,-141.003 -171.593,-242.8328 -357.346,-272.6096 -130.285,-21.9382 -2228.297,-20.3684 -2228.297,0 0,12.5371 543.117,614.1539 794.09,878.9318 l 55.683,59.5368 333.423,17.2294 c 182.712,9.4044 336.749,20.3715 341.549,23.5111 6.247,3.123 12.615,444.9429 14.206,982.3267 0,537.3814 9.547,1209.517 17.508,1493.1686 8.006,285.104 19.001,932.095 23.778,1439.72 4.751,507.667 12.763,929.053 17.555,935.336 12.59,21.988 53.882,17.239 215.904,-23.47 z m 1504.03,-20.409 c 177.741,-59.539 352.549,-162.868 447.905,-266.338 68.257,-73.636 138.096,-209.967 155.632,-310.178 9.377,-51.734 20.596,-347.764 23.78,-658.054 3.182,-310.193 12.732,-1099.8279 22.309,-1754.7084 9.427,-654.895 20.545,-1403.7865 23.775,-1665.4289 3.187,-260.0706 11.141,-477.8489 15.945,-482.548 22.164,-21.9347 473.106,97.1366 765.386,200.5367 217.656,76.7788 581.203,250.6786 773.369,368.1811 313.026,191.1389 603.562,457.4794 786.13,719.1227 128.718,188.0089 233.601,407.3444 282.752,593.7811 12.761,43.8729 31.86,109.6748 44.473,148.8463 38.081,109.6683 85.786,282.0117 103.324,368.1794 9.424,43.8614 26.962,128.4536 39.694,188.0276 36.511,169.1608 55.516,308.5934 76.229,556.1654 14.206,191.164 14.206,259.998 -7.951,437.139 -12.762,115.842 -30.135,216.161 -38.113,224.017 -23.923,23.514 -454.294,-214.604 -703.527,-390.055 -358.948,-250.797 -702.102,-578.17 -934.016,-886.8404 -188.96,-252.2262 -404.779,-678.3738 -478.004,-943.1498 -84.045,-297.6784 -138.094,-639.2216 -107.949,-665.8554 4.775,-4.7021 161.998,141.0077 349.366,321.1795 187.563,181.7368 411.394,396.3778 498.79,477.845 87.21,81.4712 225.477,213.0743 308.079,289.846 500.242,470.0105 617.742,551.5036 457.313,316.4788 -66.611,-97.1368 -79.42,-114.3746 -138.07,-206.8114 -47.706,-73.6389 -171.571,-244.408 -322.452,-443.3731 -435.148,-578.1288 -914.816,-1048.1435 -1237.243,-1209.5084 l -68.23,-34.4719 -26.962,32.902 c -14.348,17.233 -36.512,84.6002 -46.06,145.7065 -11.195,62.671 -25.377,131.5993 -31.763,153.5345 -25.493,70.5099 -33.332,333.7085 -17.536,470.019 27.111,224.0352 63.624,427.7119 87.4,493.516 11.146,34.4637 31.691,98.6991 42.91,141.0002 39.668,155.1063 277.902,672.1174 363.711,791.1592 17.389,23.5218 31.713,48.6027 31.713,53.3012 0,4.7557 31.738,56.4033 69.87,114.4255 57.256,89.229 370.092,410.434 551.08,571.792 23.755,18.795 73.051,64.248 111.131,98.719 289.093,263.183 640.051,537.377 902.086,705.02 222.437,142.544 525.71,289.889 595.58,289.889 47.653,0 154.017,-382.327 227.21,-814.746 34.916,-208.426 34.916,-1066.9428 0,-1237.7022 -52.462,-252.2481 -139.833,-593.7869 -168.386,-650.1947 -9.58,-17.2336 -27.063,-62.6632 -39.706,-101.8336 -41.305,-126.9039 -155.626,-369.7444 -238.222,-509.1843 -179.559,-302.3742 -289.099,-440.2485 -573.417,-720.6895 -630.5,-620.418 -1232.302,-977.632 -1842.254,-1090.4365 -136.502,-26.6338 -489.075,-26.6338 -622.488,0 -422.444,81.4678 -695.596,321.172 -751.261,659.5876 -9.547,67.3663 -15.914,968.232 -15.914,2636.8079 v 2536.5003 l 68.396,-10.95 c 36.519,-6.289 119.097,-29.759 184.186,-50.168 z M 672.95102,11638.094 c 805.19088,-398.028 1602.45758,-1070.106 2020.14578,-1706.2083 233.4638,-357.2287 436.7435,-802.1697 476.4499,-1049.7152 6.3455,-39.1611 17.4635,-76.7686 23.8211,-86.1699 23.8232,-31.3397 79.4088,-488.817 79.4088,-650.1923 0,-137.8676 -39.7021,-443.3766 -65.1221,-487.2434 -14.2867,-28.2034 -25.3998,-23.505 -160.3993,67.3648 -430.3961,294.5453 -968.779,772.3931 -1267.351,1124.9047 -204.8732,244.4083 -431.9908,611.0179 -470.1016,761.4158 -17.4778,65.8077 12.7053,39.1654 314.4547,-283.5672 279.5149,-299.2369 922.7263,-935.3257 1067.2454,-1057.5343 149.2842,-125.3404 249.3461,-191.1351 274.7469,-181.7395 22.2436,9.4001 23.8231,34.4711 14.3016,194.2767 -6.3597,100.2675 -17.4728,208.3683 -25.4147,238.1393 -6.3458,29.7652 -22.2289,100.2706 -31.7655,156.6687 -55.5853,303.9451 -269.9785,758.2947 -497.0835,1049.7217 -282.7021,361.9074 -622.5611,668.9214 -1051.3772,947.8524 -206.4543,133.14 -608.26108,361.913 -617.79458,349.394 -3.1737,-3.131 -12.7098,-64.254 -22.2288,-137.85 -26.9945,-195.874 -22.2435,-490.475 12.709,-783.421 17.4618,-142.5517 36.5168,-297.6633 41.2795,-344.6527 6.3505,-47.0138 15.8839,-92.4359 22.2343,-101.8347 6.3597,-7.8554 20.6488,-61.1244 31.7619,-117.5126 60.3564,-311.776 228.70038,-703.4543 431.99258,-1012.0949 208.0458,-316.4831 424.0335,-534.2553 705.1457,-715.9923 478.0267,-307.0786 925.9009,-510.7528 1291.1772,-582.8258 174.6987,-36.0297 443.1004,-26.6337 533.6276,17.2392 l 63.5129,29.7698 9.5358,219.3347 c 4.7685,120.6401 14.2867,349.3802 20.6498,509.1837 12.7081,332.1484 23.82,374.4492 138.1703,540.5164 184.2228,264.7804 404.9801,419.886 657.5014,459.0513 55.588,9.4037 92.1188,7.8358 103.2319,-3.1307 9.5216,-9.4008 15.884,-147.2714 15.884,-377.5816 0,-200.5472 4.7619,-596.9148 11.1132,-882.0625 l 9.5299,-520.1505 h 257.2802 257.2863 l 11.1131,576.5547 c 4.7678,316.4759 14.2872,715.987 20.651,886.7569 l 9.5196,311.7819 430.3979,-10.9668 c 236.6365,-6.2686 436.7438,-17.2342 444.6823,-25.066 7.9418,-7.8376 17.4771,-396.3827 20.6503,-880.4949 4.768,-476.2859 7.9419,-872.6664 11.1155,-880.498 3.1735,-14.0969 365.2835,-14.0969 447.8703,0 l 50.8223,9.397 9.5219,244.4096 c 4.7678,136.3058 12.7056,412.0506 17.4739,614.1548 4.7674,202.1052 15.883,491.9502 25.4023,642.3523 7.942,150.4061 17.4775,327.4443 19.0638,391.6831 l 3.1803,117.5023 103.2144,-4.7012 c 365.2937,-14.0968 646.3834,-238.135 741.6826,-590.6527 33.3626,-119.0721 34.9411,-162.939 38.1257,-947.8629 4.7571,-808.4327 3.1754,-824.0958 -28.589,-885.194 -71.4717,-133.1691 -193.7611,-209.9481 -385.9256,-242.8473 -73.062,-12.5302 -684.5,-15.6669 -2072.5604,-12.5302 l -1969.3204,4.6988 -195.3537,57.9704 c -554.2649,167.6442 -1083.1285,435.5445 -1480.1675,755.1569 -346.2168,277.309 -667.03268,642.3543 -876.67508,996.4313 -127.0412,217.7733 -330.33342,661.1546 -330.33342,725.3935 0,10.9651 -6.34993,26.6351 -14.28976,36.0325 -17.47696,15.6674 -76.23684,235.0036 -101.64003,374.4458 -11.13145,56.3962 -17.47486,347.8204 -17.47486,728.5664 -1.59838,600.036 0,643.915 34.93884,814.641 20.64673,98.754 44.4721,219.348 54.00533,266.338 7.94169,47.015 20.63561,93.98 26.99713,101.857 6.34577,9.358 20.63817,54.775 31.76456,101.826 25.40134,100.258 74.6415,203.764 96.87061,203.764 9.53615,0 74.6432,-29.894 147.7067,-64.254 z M 14267.602,8963.6404 c 338.348,-333.7143 614.683,-612.5878 614.683,-618.8583 0,-7.8283 -58.804,-70.4995 -130.266,-142.5683 -200.1,-195.8376 -1991.436,-1989.739 -2259.812,-2260.7759 -130.333,-131.6022 -239.873,-239.7078 -246.215,-239.7078 -7.988,0 -1311.913,1286.2775 -1929.655,1903.5672 -171.573,172.3397 -408.213,408.9121 -525.737,526.4143 l -214.439,211.5005 503.531,493.5246 c 276.351,271.0409 557.473,545.214 624.111,611.0185 l 120.736,120.634 1413.465,1.5695 1413.421,1.5717 z"
       id="path1"
       style="fill:#f9f9f9;stroke-width:1.57745" />
    <path
       d="m 11137.384,8639.3299 c -155.577,-161.3772 -276.335,-303.9421 -271.562,-319.6115 3.186,-9.3985 131.753,-144.1396 284.327,-302.3751 152.439,-156.6716 352.569,-363.4801 444.573,-457.4851 92.15,-94.0014 271.562,-277.3096 398.634,-407.3448 l 231.867,-235.0059 196.94,203.6711 c 108.122,111.2375 297.081,303.9451 419.354,429.2813 123.793,125.338 312.902,319.606 420.851,430.8471 109.54,112.8038 201.689,206.8117 206.466,211.5095 146.094,145.7028 166.646,173.9069 139.66,194.2712 -15.754,10.9622 -72.973,61.1069 -128.613,112.8049 -55.516,50.132 -130.162,119.0719 -166.623,151.9675 l -65.244,57.9692 -1017.993,4.7039 -1017.991,3.1313 z"
       id="path2"
       style="fill:#f9f9f9;stroke-width:1.57745" />
  </g>
</svg>
